<?xml version="1.0" encoding="UTF-8"?>
<svg version="1.1" xmlns="http://www.w3.org/2000/svg" width="450" height="449">
<path d="M0 0 C7.86946005 0.48140267 15.37262034 2.8536452 22.9375 4.9375 C33.89305621 7.98109769 33.89305621 7.98109769 44.97485352 10.51000977 C47 11 47 11 49.72265625 11.91430664 C53.5697005 13.18872602 57.45031456 14.22257574 61.37109375 15.2421875 C62.17047867 15.45183136 62.96986359 15.66147522 63.79347229 15.87747192 C66.34099622 16.54518478 68.88921752 17.21018862 71.4375 17.875 C74.76969035 18.74678837 78.10163234 19.61952459 81.43359375 20.4921875 C82.67117683 20.81614754 82.67117683 20.81614754 83.9337616 21.14665222 C98.1934528 24.8813227 112.42268453 28.72782669 126.65063477 32.58129883 C129.79621503 33.4330902 132.94204704 34.28394733 136.08789062 35.13476562 C138.14847596 35.69256629 140.20902324 36.25050754 142.26953125 36.80859375 C143.27291534 37.08029388 144.27629944 37.35199402 145.31008911 37.63192749 C149.94614968 38.88989698 154.57916962 40.15702078 159.20458984 41.45361328 C160.01055099 41.67944595 160.81651215 41.90527863 161.64689636 42.13795471 C163.11199821 42.54980675 164.57651497 42.96375008 166.04023743 43.38047791 C170.283269 44.57477736 174.54144314 45.57380643 178.848526 46.50921631 C181.93723554 47.21379757 184.96159111 48.10503577 188 49 C189.38758532 49.38855166 190.77598508 49.77420258 192.16503906 50.1574707 C192.90401428 50.36140945 193.6429895 50.56534821 194.40435791 50.77546692 C195.57318512 51.09737251 195.57318512 51.09737251 196.765625 51.42578125 C197.59850037 51.65524948 198.43137573 51.88471771 199.28948975 52.12113953 C201.05101239 52.60626392 202.81258977 53.0911896 204.57421875 53.57592773 C207.20080056 54.29895669 209.82696745 55.02347873 212.453125 55.74804688 C221.81047094 58.32555269 231.17712168 60.86034368 240.5692749 63.30830383 C245.49783066 64.59443912 250.40886389 65.93449295 255.3125 67.3125 C263.46625472 69.58963754 271.63498056 71.80973798 279.8125 74 C280.4617041 74.17388245 281.1109082 74.34776489 281.77978516 74.5269165 C289.9295326 76.70452537 298.09460739 78.78184569 306.3125 80.6875 C313.09660741 82.26120006 319.77716806 84.02668836 326.44238281 86.04443359 C335.90264246 88.90414524 345.45805388 91.42911986 355 94 C354.34127296 101.69160688 352.2813518 108.9493848 350.25 116.375 C349.88176138 117.73613857 349.51392614 119.09738633 349.14648438 120.45874023 C346.2186481 131.28527027 343.21557428 142.09047998 340.19042969 152.89013672 C335.7697897 168.70355064 331.52718488 184.55501818 327.39385986 200.44558716 C324.23913331 212.56355778 321.02614229 224.66506934 317.76171875 236.75390625 C317.48405261 237.78217781 317.48405261 237.78217781 317.20077705 238.83122253 C315.34810644 245.69001923 313.49173568 252.54780839 311.63141632 259.40453434 C307.77295764 273.62869251 303.96256604 287.86265673 300.29412842 302.13719177 C298.36129991 309.65396345 296.33154652 317.13812501 294.23046875 324.609375 C292.62098837 330.33369558 291.06344893 336.07205871 289.50268555 341.80981445 C287.99755627 347.34237157 286.48677417 352.8733089 284.96875 358.40234375 C284.22857014 361.10139929 283.48911065 363.80065149 282.75 366.5 C282.56169617 367.18738251 282.37339233 367.87476501 282.17938232 368.58297729 C279.88646275 376.96222277 277.63480101 385.35091087 275.4453125 393.7578125 C275.23269775 394.57410126 275.02008301 395.39039001 274.80102539 396.23141479 C274.58857178 397.0472403 274.37611816 397.8630658 274.15722656 398.70361328 C270.93874835 411.06170125 267.71612315 423.40463361 264 435.625 C263.72140137 436.5423291 263.44280273 437.4596582 263.15576172 438.40478516 C262.00082513 442.116617 260.80838824 445.54841283 259 449 C253.98109302 448.48080273 249.79334691 447.6226282 245 446 C242.13631446 445.18572289 239.25634181 444.43657125 236.375 443.6875 C235.55684814 443.47311279 234.73869629 443.25872559 233.89575195 443.0378418 C226.83761739 441.19708459 219.76187333 439.42786469 212.67529297 437.69995117 C211.88912598 437.5063501 211.10295898 437.31274902 210.29296875 437.11328125 C209.26465942 436.86251831 209.26465942 436.86251831 208.21557617 436.60668945 C206.49818364 436.13641723 204.7991779 435.59874524 203.11035156 435.03442383 C200.07324937 434.02436088 197.03390773 433.15940902 193.94140625 432.3359375 C192.17845215 431.86571167 192.17845215 431.86571167 190.37988281 431.38598633 C189.12014648 431.05236084 187.86041016 430.71873535 186.5625 430.375 C185.23403864 430.02176928 183.90558832 429.66849703 182.57714844 429.31518555 C175.64520178 427.475075 168.70728213 425.65912124 161.76171875 423.87109375 C161.08770523 423.69757385 160.41369171 423.52405396 159.71925354 423.34527588 C156.50844358 422.51953738 153.29686466 421.69703574 150.08422852 420.87841797 C143.57175053 419.21154161 137.08238773 417.48079895 130.609375 415.66796875 C119.27117542 412.4934235 107.8843457 409.5039366 96.5 406.5 C83.63138868 403.10441684 70.77156855 399.6895779 57.95458984 396.10351562 C52.33409189 394.53125844 46.69922219 393.01290196 41.0625 391.5 C39.95261719 391.20158203 38.84273437 390.90316406 37.69921875 390.59570312 C30.54842777 388.67588915 23.39147228 386.78097468 16.22900391 384.90527344 C8.70450882 382.93106395 1.1955282 380.90017909 -6.31445312 378.87158203 C-14.95808509 376.54070094 -23.61148185 374.24818333 -32.26757812 371.96417236 C-43.73071564 368.93886434 -55.1873823 365.89911763 -66.59716797 362.67724609 C-70.77386387 361.50003065 -74.95353447 360.33343393 -79.13256836 359.16455078 C-84.08882976 357.77797559 -89.04445113 356.38911923 -94 355 C-95.26799151 351.39291192 -94.71969152 348.98548273 -93.7421875 345.3359375 C-93.44884521 344.22307373 -93.15550293 343.11020996 -92.85327148 341.96362305 C-92.53044189 340.77937744 -92.2076123 339.59513184 -91.875 338.375 C-91.55023682 337.15530518 -91.22547363 335.93561035 -90.89086914 334.67895508 C-89.9385984 331.11611252 -88.97263847 327.55733032 -88 324 C-87.75910645 323.11779785 -87.51821289 322.2355957 -87.27001953 321.32666016 C-86.07407266 316.96459649 -84.85530919 312.60915304 -83.63134766 308.25488281 C-80.09444138 295.62268391 -76.71115765 282.95281995 -73.4375 270.25 C-70.93435148 260.5376479 -68.33199464 250.86176844 -65.61816406 241.20654297 C-62.48806823 230.03363374 -59.47191033 218.83062454 -56.53515625 207.60546875 C-56.31710831 206.77288544 -56.09906036 205.94030212 -55.87440491 205.08248901 C-54.77995153 200.90202731 -53.68874499 196.72076153 -52.6027832 192.53808594 C-50.83716831 185.76594398 -49.05181066 179.02371407 -46.9453125 172.34765625 C-45.3035813 167.13022798 -43.92711095 161.87950825 -42.62695312 156.56730652 C-40.50982058 147.9371704 -38.19732672 139.35921446 -35.90087891 130.77539062 C-35.13171887 127.9001165 -34.36452633 125.02432313 -33.59765625 122.1484375 C-30.79086857 111.63316379 -27.95190719 101.1270986 -25.0824585 90.62875366 C-22.87703973 82.55911339 -20.7049091 74.48088598 -18.546875 66.3984375 C-17.0975882 60.99408767 -15.60282243 55.6079242 -14.04296875 50.234375 C-11.80795411 42.45369002 -9.86390469 34.61128782 -7.9375 26.75 C-1.82946994 1.82946994 -1.82946994 1.82946994 0 0 Z M93 160 C90.16714406 168.05127477 87.93384309 176.25708055 85.68701172 184.48583984 C85.01477495 186.9459302 84.33792459 189.40470984 83.66015625 191.86328125 C81.31686636 200.38725561 79.01489622 208.92156366 76.7578125 217.46875 C76.56167358 218.21133057 76.36553467 218.95391113 76.16345215 219.71899414 C75.18883245 223.41097053 74.21640939 227.10350872 73.24707031 230.796875 C72.88105596 232.18755175 72.51484778 233.57817751 72.1484375 234.96875 C71.97123169 235.64325195 71.79402588 236.31775391 71.6114502 237.01269531 C70.72939095 240.34505347 69.81577475 243.66343167 68.83691406 246.96875 C68.28729004 248.825 68.28729004 248.825 67.7265625 250.71875 C67.22890381 252.3574707 67.22890381 252.3574707 66.72119141 254.02929688 C66.04303586 256.82272841 65.85365119 259.14189379 66 262 C76.92891876 265.38331421 87.86059601 268.54010693 98.97851562 271.24267578 C104.66715879 272.63560639 110.23814329 274.26356339 115.8203125 276.0390625 C120.05140893 277.31774766 124.32831084 278.37569363 128.62011719 279.42553711 C134.88493387 280.95881582 141.12020728 282.5952977 147.35400391 284.24975586 C149.56845746 284.83657891 151.78386528 285.41956004 154 286 C155.10601562 286.29124756 155.10601562 286.29124756 156.234375 286.58837891 C159.92144914 287.53958348 163.17998452 288.23875097 167 288 C169.96595804 281.84770313 171.59956672 275.45005254 173.30233765 268.85177612 C174.17242665 265.4803569 175.05918027 262.11332547 175.9453125 258.74609375 C176.12098251 258.07709549 176.29665253 257.40809723 176.47764587 256.71882629 C177.95950394 251.09829076 179.5533072 245.51523534 181.1875 239.9375 C183.43001111 232.24365095 185.36777194 224.50891168 187.16333008 216.69921875 C188.72635819 209.95479389 190.53943885 203.30348485 192.56469727 196.68286133 C194.13393718 191.79005988 194.13393718 191.79005988 193 187 C190.24988868 185.16659245 188.85480344 184.58010503 185.74609375 183.88671875 C184.90159668 183.69352051 184.05709961 183.50032227 183.18701172 183.30126953 C182.27967285 183.09872559 181.37233398 182.89618164 180.4375 182.6875 C173.70653271 181.13631643 167.01824783 179.51808114 160.375 177.625 C152.90567156 175.49925097 145.39903768 173.54765636 137.875 171.625 C127.77385158 169.04088579 117.75284774 166.25380131 107.77685547 163.22119141 C102.84071254 161.73922648 98.12773383 160.55243541 93 160 Z " fill="#FFFFFF" transform="translate(95,0)"/>
</svg>
